<!-- icon666.com - MILLIONS vector ICONS FREE --><svg id="Layer_1" viewBox="0 0 256 256" xmlns="http://www.w3.org/2000/svg"><g><g><path d="m251.665 110.068-.365 46.739c0 3.034-1.208 5.936-3.359 8.087l-53.042 53.052c-1.903 1.903-2.971 4.484-2.971 7.175v4.401h-51.123v-31.192h.02c-.365-10.766 3.734-21.249 11.396-28.91 24.289-24.265 18.559-18.538 27.926-27.905 3.744-3.744 9.873-3.724 13.587.152 3.644 3.806 3.316 9.804-.294 13.415l-13.212 13.202c-4.11 4.13-4.079 10.837.132 14.907 4.059 3.937 10.898 3.633 14.896-.365l32.553-32.563c1.685-1.685 2.628-3.947 2.628-6.322l.365-33.872c0-5.774 4.678-10.442 10.442-10.442 5.753 0 10.421 4.667 10.421 10.441z" fill="#ffb69f"></path><path d="m115.192 198.33v31.192h-51.122v-4.401c0-2.691-1.069-5.272-2.971-7.175l-53.043-53.051c-2.151-2.151-3.359-5.053-3.359-8.087l-.365-46.739c0-5.774 4.668-10.442 10.421-10.442 5.764 0 10.442 4.668 10.442 10.442l.365 33.872c0 2.374.944 4.637 2.628 6.322l32.553 32.563c3.998 3.998 10.838 4.303 14.896.365 4.211-4.069 4.242-10.777.132-14.907l-13.212-13.202c-3.616-3.616-3.934-9.615-.294-13.415 3.714-3.876 9.843-3.897 13.587-.152 9.365 9.365 3.635 3.639 27.926 27.905 7.661 7.661 11.761 18.144 11.396 28.91z" fill="#ffb69f"></path><path d="m85.778 88.6c0 13.172-10.678 23.849-23.849 23.849s-23.849-10.677-23.849-23.849 23.849-51.202 23.849-51.202 23.849 38.031 23.849 51.202z" fill="#72c2e9"></path><path d="m157.174 85.116c0 15.104-12.233 27.336-27.321 27.336s-27.321-12.233-27.321-27.336c0-5.816 4.058-15.885 9.062-26.044l9.994 15.419 8.251-48 .015-.03c-.001-.001 27.32 43.566 27.32 58.655z" fill="#fc5d3d"></path><path d="m217.917 65.606h-15.438l3.424-28.203h-24.898l-5.037 41.485h11.919l-4.072 33.561z" fill="#f0c020"></path><g><path d="m182.939 226.177c-1.381 0-2.5-1.119-2.5-2.5v-6.477c0-.663.263-1.299.732-1.768l58.641-58.642.268-33.746c.011-1.374 1.128-2.48 2.5-2.48h.02c1.381.011 2.491 1.139 2.48 2.52l-.265 33.67c0 1.346-.52 2.621-1.464 3.568l-57.912 57.913v5.441c0 1.381-1.119 2.501-2.5 2.501zm59.72-110.612c-.007 0-.013 0-.02 0-1.381-.011-2.491-1.139-2.48-2.52l.023-3c.011-1.374 1.128-2.48 2.5-2.48h.02c1.381.011 2.491 1.139 2.48 2.52l-.023 3c-.011 1.373-1.128 2.48-2.5 2.48z" fill="#fbe0e2"></path></g><g><path d="m106.152 212.456c-1.378 0-2.497-1.115-2.5-2.494-.006-2.373-.025-10.134.039-12.026.256-7.69-2.77-15.126-8.034-20.39l-27.928-27.912c-.977-.976-.977-2.559-.001-3.535s2.56-.977 3.535-.001l27.929 27.912c6.24 6.239 9.8 15.035 9.497 24.095-.062 1.839-.041 10.015-.036 11.845.003 1.381-1.113 2.503-2.494 2.506-.003 0-.005 0-.007 0z" fill="#fbe0e2"></path></g><g><path d="m61.929 104.95c-1.381 0-2.5-1.119-2.5-2.5s1.119-2.5 2.5-2.5c6.258 0 11.349-5.091 11.349-11.349 0-2.101-2.201-8.645-8.378-20.708-.629-1.229-.144-2.735 1.085-3.365s2.735-.144 3.365 1.085c4.073 7.954 8.928 18.399 8.928 22.988 0 9.015-7.334 16.349-16.349 16.349zm-1.702-45.812-.483-.871c-.672-1.206-.24-2.729.966-3.401 1.206-.673 2.729-.24 3.401.966l.491.884c.668 1.208.231 2.729-.977 3.398-1.213.67-2.731.228-3.398-.976z" fill="#c5e5fe"></path></g><g><path d="m128.483 103.443c-1.377-.1-2.412-1.298-2.312-2.675s1.304-2.417 2.675-2.312c7.802.551 14.369-5.627 14.37-13.34 0-1.02-.483-4.453-4.958-14.266-.573-1.256-.019-2.739 1.238-3.312 1.255-.571 2.739-.019 3.312 1.238 3.639 7.981 5.408 13.326 5.408 16.34 0 10.605-9.011 19.118-19.733 18.327zm5.461-41.5-.45-.881c-.63-1.228-.146-2.735 1.083-3.365 1.228-.631 2.735-.146 3.365 1.083l.46.901c.625 1.231.133 2.736-1.098 3.361-1.229.623-2.735.134-3.36-1.099z" fill="#ffcbc3"></path></g><g><path d="m192.007 71.389h-4.751c-1.499 0-2.662-1.312-2.482-2.801l1.235-10.174c.167-1.371 1.407-2.346 2.783-2.181 1.371.167 2.347 1.413 2.181 2.783l-.896 7.373h1.93c1.381 0 2.5 1.119 2.5 2.5s-1.119 2.5-2.5 2.5zm-2.612-20.12c-1.371-.167-2.347-1.413-2.181-2.783l.168-1.384c.167-1.37 1.405-2.341 2.783-2.181 1.371.167 2.347 1.413 2.181 2.783l-.168 1.384c-.164 1.355-1.392 2.347-2.783 2.181z" fill="#f8e5b0"></path></g><path d="m153.858 167.77c-.95-.94-2.6-.93-3.54.02-8.072 8.136-12.311 19.166-12 30.29-.015.125-.01 31.315-.01 31.44 0 1.38 1.12 2.5 2.5 2.5s2.5-1.12 2.5-2.5v-.01c-.011-32.391.02-31.27.02-31.27-.418-9.411 3.091-19.414 10.54-26.94.97-.98.97-2.56-.01-3.53z"></path><path d="m241.248 97.13c-7.12 0-12.93 5.79-12.95 12.91-.001.049-.36 33.852-.36 33.9 0 1.71-.68 3.33-1.9 4.55l-32.55 32.57c-3.034 3.034-8.3 3.318-11.39.34-3.245-3.162-3.197-8.253-.1-11.35l13.21-13.2c4.54-4.56 4.937-12.107.33-16.91-4.617-4.844-12.388-4.983-17.16-.19-8.499 8.499-5.102 5.094-13.93 13.91-.97.98-.97 2.57 0 3.54.95.95 2.59.95 3.54 0 8.675-8.663 6.698-6.689 13.93-13.92 2.731-2.731 7.244-2.77 10.01.12 2.717 2.827 2.374 7.267-.26 9.92l-13.21 13.2c-5.187 5.208-4.968 13.505.16 18.47 5.108 4.933 13.483 4.517 18.4-.4l32.56-32.56c2.16-2.16 3.35-5.02 3.36-8.06l.36-33.88v-.02c.01-4.37 3.57-7.94 7.95-7.94 4.35 0 7.91 3.57 7.92 7.94l-.37 46.72c0 2.39-.93 4.64-2.62 6.34l-53.05 53.05c-2.39 2.39-3.7 5.56-3.7 8.94v4.4c0 1.38 1.12 2.5 2.5 2.5s2.5-1.12 2.5-2.5v-4.4c0-2.04.79-3.96 2.24-5.41l53.04-53.05c2.64-2.63 4.09-6.13 4.09-9.85l.37-46.72c0-7.15-5.8-12.96-12.92-12.96z"></path><path d="m157.398 160.71s0 .01-.01.01c-.97.971-.978 2.551 0 3.53 1.03 1.03 2.61.94 3.54.01.97-.98.97-2.57 0-3.54-.94-.94-2.58-.95-3.53-.01z"></path><path d="m6.288 166.662 53.042 53.052c1.444 1.444 2.239 3.365 2.239 5.407v4.401c0 1.381 1.119 2.5 2.5 2.5s2.5-1.119 2.5-2.5v-4.401c0-3.378-1.315-6.554-3.704-8.942l-53.042-53.052c-1.694-1.694-2.626-3.938-2.626-6.339l-.365-46.72c0-4.379 3.554-7.941 7.921-7.941 4.379 0 7.941 3.563 7.941 7.968l.365 33.845c0 3.05 1.193 5.923 3.36 8.089l32.553 32.563c5.02 5.021 13.449 5.2 18.401.396 5.198-5.023 5.289-13.32.162-18.473l-13.211-13.201c-2.748-2.748-2.863-7.197-.257-9.918 2.849-2.974 7.388-2.74 10.015-.114l27.926 27.905c7.119 7.12 11.006 16.982 10.665 27.058 0 0 .019-1.08.019 31.277 0 1.381 1.119 2.5 2.5 2.5s2.5-1.119 2.5-2.5v-31.192c0-12.938-4.537-23.067-12.148-30.679l-27.925-27.905c-4.672-4.671-12.414-4.762-17.161.191-4.472 4.669-4.323 12.256.333 16.913l13.207 13.197c3.135 3.15 3.109 8.247-.101 11.349-2.987 2.899-8.31 2.739-11.388-.338l-32.553-32.564c-1.223-1.222-1.896-2.839-1.896-4.581l-.365-33.845c0-7.136-5.806-12.941-12.941-12.941-7.125 0-12.921 5.806-12.921 12.961l.365 46.72c-.001 3.716 1.452 7.216 4.09 9.854z"></path><path d="m44.088 76.06c.01-.01.01-.01.01-.01.52-1.27-.09-2.73-1.36-3.26-1.26-.51-2.76.12-3.27 1.36-.52 1.27.09 2.74 1.36 3.27 1.331.514 2.756-.113 3.26-1.36z"></path><path d="m36.158 84.05c-.39 1.74-.58 3.23-.58 4.55 0 14.587 11.811 26.35 26.35 26.35 14.562 0 26.35-11.782 26.35-26.35-.105-12.277-17.793-42.2-24.17-52.42-.04-.07-.06-.1-.06-.11-.983-1.561-3.257-1.559-4.24 0-.08.13-9.15 14.6-16.12 28.82-.61 1.23-.1 2.73 1.14 3.34 1.21.6 2.74.07 3.34-1.13l.01-.01c3.961-8.078 9.243-17.459 13.75-24.9 5.112 8.454 21.539 36.623 21.35 46.41-.02 11.75-9.6 21.33-21.35 21.35-11.75-.02-21.33-9.6-21.35-21.35 0-.92.16-2.12.46-3.46.3-1.35-.55-2.69-1.89-2.99-1.32-.29-2.69.58-2.99 1.9z"></path><path d="m127.374 26.067-7.167 41.697-6.516-10.052c-1.056-1.63-3.486-1.48-4.34.255-6.184 12.553-9.319 21.687-9.319 27.148 0 16.452 13.378 29.836 29.821 29.836s29.821-13.385 29.821-29.836c0-15.628-26.572-58.18-27.703-59.983-1.191-1.899-4.203-1.363-4.597.935zm2.479 83.885c-13.687 0-24.821-11.142-24.821-24.836 0-2.917 1.252-8.884 6.887-20.946l7.571 11.681c1.234 1.904 4.177 1.302 4.562-.937l7.13-41.484c8.76 14.647 23.493 41.426 23.493 51.686-.001 13.694-11.136 24.836-24.822 24.836z"></path><path d="m185.838 113.92 34.1-46.84c1.213-1.668.014-3.97-2.02-3.97h-12.62l3.09-25.41c.174-1.518-1.019-2.8-2.49-2.8h-24.89c-1.27 0-2.33.95-2.49 2.2l-1.35 11.17c-.17 1.37.81 2.62 2.18 2.79 1.36.16 2.62-.83 2.78-2.18l1.09-8.98h19.86l-3.08 25.41c-.185 1.456.973 2.8 2.48 2.8h10.53l-25.55 35.09 2.91-24.01c.187-1.466-.967-2.8-2.48-2.8h-9.1l.93-7.66c.17-1.37-.81-2.62-2.18-2.78-1.36-.17-2.61.82-2.78 2.16v.02l-1.27 10.46c-.19 1.501.999 2.8 2.48 2.8h9.1l-3.73 30.76c-.316 2.547 2.976 3.844 4.5 1.77z"></path><path d="m178.138 60.98c1.092.218 2.593-.628 2.79-2.18.16-1.36-.82-2.61-2.18-2.78-1.36-.16-2.62.83-2.79 2.18-.168 1.388.834 2.617 2.18 2.78z"></path></g><path d="m106.199 226.054c-1.385 0-2.508-1.123-2.508-2.508v-3.547c0-1.385 1.123-2.508 2.508-2.508 1.385 0 2.508 1.123 2.508 2.508v3.547c-.001 1.385-1.123 2.508-2.508 2.508z" fill="#fbe0e2"></path></g></svg>